# xmcd
#
# Track frame offsets: 
#        150
#        14341
#        27234
#        40991
#        54674
#        67651
#        82761
#        96147
#        109512
#        123150
#        138452
#        152051
#        164917
#        178822
#        193022
#        207332
#        219117
#        233153
#        246711
#        260359
#        274997
#        288486
#        302173
#        316441
#        330690
#        345400
#
# Disc length: 4782 seconds
#
# Revision: 0
# Processed by: cddbd v1.5.2PL0 Copyright (c) Steve Scherf et al.
# Submitted via: ExactAudioCopy v0.99pb4
#
DISCID=7c12ac1a
DTITLE=Various Artist - The Definite Charley Patton (Vol. 1): A Spoonful Blue
DTITLE=s
DYEAR=2009
DGENRE=Blues
TTITLE0=Charley Patton - Mississippi Boweavil Blues
TTITLE1=Bessie Smith - Bo Weevil Blues
TTITLE2=Charley Patton - Screamin' and Hollerin' the Blues
TTITLE3=Alberta Hunter - Down South Blues
TTITLE4=Charley Patton - Down the Dirt Road Blues
TTITLE5=Tommy Johnson - Big Road Blues
TTITLE6=Charley Patton - Pony Blues
TTITLE7=Blind Lemon Jefferson - Black Horse Blues
TTITLE8=Charley Patton - Banty Rooster Blues
TTITLE9=Walter Rhodes - The Crowing Rooster
TTITLE10=Charley Patton - Pea Wine Blues
TTITLE11=Robert Johnson - Come On in My Kitchen
TTITLE12=Charley Patton - Tom Rushen Blues
TTITLE13=Ma Rainey - Booze and Blues
TTITLE14=Charley Patton - A Spoonful Blues
TTITLE15=Charley Jordan - Jost a Spoonful
TTITLE16=Charley Patton - Shake It and Break It
TTITLE17=Cripple Clarence Lofton - I Dont't Know Cripple
TTITLE18=Charley Patton - Going to Move to Alabama
TTITLE19=Jim Jackson - Jim Jackson's Kansas City Blues
TTITLE20=Charley Patton -  Elder Greene Blues
TTITLE21=Papa Charlie Jackson - I'm Alabama Bound
TTITLE22=Charley Patton - Frankie and Albert
TTITLE23=Charley Poole - Leaving Home
TTITLE24=Charley Patton - Some these Days I'll Be Gone
TTITLE25=Ethel Waters - Some of these Days
EXTD=
EXTT0=
EXTT1=
EXTT2=
EXTT3=
EXTT4=
EXTT5=
EXTT6=
EXTT7=
EXTT8=
EXTT9=
EXTT10=
EXTT11=
EXTT12=
EXTT13=
EXTT14=
EXTT15=
EXTT16=
EXTT17=
EXTT18=
EXTT19=
EXTT20=
EXTT21=
EXTT22=
EXTT23=
EXTT24=
EXTT25=
PLAYORDER=
